<mxfile host="65bd71144e">
    <diagram id="bdDmndJHoNrstiOoPqqP" name="Page-1">
        <mxGraphModel dx="556" dy="575" grid="1" gridSize="10" guides="1" tooltips="1" connect="1" arrows="1" fold="1" page="1" pageScale="1" pageWidth="850" pageHeight="1100" math="0" shadow="0">
            <root>
                <mxCell id="0"/>
                <mxCell id="1" parent="0"/>
                <mxCell id="2" value="User" style="swimlane;childLayout=stackLayout;horizontal=1;startSize=30;horizontalStack=0;rounded=1;fontSize=14;fontStyle=0;strokeWidth=2;resizeParent=0;resizeLast=1;shadow=0;dashed=0;align=center;" vertex="1" parent="1">
                    <mxGeometry x="50" y="30" width="230" height="290" as="geometry"/>
                </mxCell>
                <mxCell id="3" value="+Email: string*&#10;+Username: string*&#10;+ Address: string&#10;+BloodGroup: string&#10;+DateofBirth: Date&#10;+Phones: string[]*&#10;+FullName: string*&#10;+Gender: string&#10;+Password: 64bit hashed*&#10;+AdminLevel: enum&#10;+isActive: bool&#10;+image: blob&#10;" style="align=left;strokeColor=none;fillColor=none;spacingLeft=4;fontSize=12;verticalAlign=top;resizable=0;rotatable=0;part=1;" vertex="1" parent="2">
                    <mxGeometry y="30" width="230" height="260" as="geometry"/>
                </mxCell>
            </root>
        </mxGraphModel>
    </diagram>
</mxfile>